<?xml version="1.0" encoding="UTF-8" standalone="no"?>
<!-- Created with Inkscape (http://www.inkscape.org/) -->

<svg
   width="64"
   height="64"
   viewBox="0 0 64 64.000003"
   id="svg2"
   version="1.1"
   inkscape:version="1.2 (dc2aedaf03, 2022-05-15)"
   sodipodi:docname="logo.svg"
   inkscape:export-filename="logo.png"
   inkscape:export-xdpi="360"
   inkscape:export-ydpi="360"
   xmlns:inkscape="http://www.inkscape.org/namespaces/inkscape"
   xmlns:sodipodi="http://sodipodi.sourceforge.net/DTD/sodipodi-0.dtd"
   xmlns="http://www.w3.org/2000/svg"
   xmlns:svg="http://www.w3.org/2000/svg"
   xmlns:rdf="http://www.w3.org/1999/02/22-rdf-syntax-ns#"
   xmlns:cc="http://creativecommons.org/ns#"
   xmlns:dc="http://purl.org/dc/elements/1.1/">
  <defs
     id="defs4" />
  <sodipodi:namedview
     id="base"
     pagecolor="#ffffff"
     bordercolor="#666666"
     borderopacity="1.0"
     inkscape:pageopacity="0.0"
     inkscape:pageshadow="2"
     inkscape:zoom="2.8284271"
     inkscape:cx="265.34182"
     inkscape:cy="-72.831998"
     inkscape:document-units="px"
     inkscape:current-layer="g4280"
     showgrid="true"
     units="px"
     inkscape:showpageshadow="false"
     borderlayer="true"
     inkscape:window-width="2560"
     inkscape:window-height="1367"
     inkscape:window-x="0"
     inkscape:window-y="0"
     inkscape:window-maximized="1"
     showguides="true"
     inkscape:pagecheckerboard="0"
     inkscape:deskcolor="#d1d1d1">
    <inkscape:grid
       type="xygrid"
       id="grid4136" />
    <sodipodi:guide
       position="5,59.000069"
       orientation="54,0"
       id="guide4142"
       inkscape:locked="false" />
    <sodipodi:guide
       position="5,5.0000688"
       orientation="0,54"
       id="guide4144"
       inkscape:locked="false" />
    <sodipodi:guide
       position="59,5.0000688"
       orientation="-54,0"
       id="guide4146"
       inkscape:locked="false" />
    <sodipodi:guide
       position="59,59.000069"
       orientation="0,-54"
       id="guide4148"
       inkscape:locked="false" />
    <sodipodi:guide
       position="0,64.000069"
       orientation="64,0"
       id="guide4150"
       inkscape:locked="false" />
    <sodipodi:guide
       position="0,6.875e-05"
       orientation="0,64"
       id="guide4152"
       inkscape:locked="false" />
    <sodipodi:guide
       position="64,4.0000002"
       orientation="-64,0"
       id="guide4154"
       inkscape:locked="false" />
    <sodipodi:guide
       position="64,64.000069"
       orientation="0,-64"
       id="guide4156"
       inkscape:locked="false" />
  </sodipodi:namedview>
  <metadata
     id="metadata7">
    <rdf:RDF>
      <cc:Work
         rdf:about="">
        <dc:format>image/svg+xml</dc:format>
        <dc:type
           rdf:resource="http://purl.org/dc/dcmitype/StillImage" />
      </cc:Work>
    </rdf:RDF>
  </metadata>
  <g
     inkscape:label="Capa 1"
     inkscape:groupmode="layer"
     id="layer1"
     transform="translate(0,-1058.5196)">
    <g
       id="g46"
       transform="matrix(0.12612634,0,0,0.12612634,-36.216909,1065.4805)">
	
	
	<g
   id="g756"
   transform="matrix(0.88869916,0,0,0.88869916,60.383303,17.046224)">
  <g
     id="g4280"
     transform="matrix(1.142125,0,0,1,-76.840398,2.8015164e-4)">
    <path
       id="path38-3"
       style="opacity:1;fill:#666666;fill-opacity:1;stroke-width:1.35902"
       class="st5"
       d="m 540.41839,-9.4753893 c -69.30575,0 -125.58102,39.0726593 -125.58102,87.3160093 v 244.07011 c 0,11.79282 12.5494,21.55457 28.05403,21.55457 h 56.77022 v 58.11193 c 0,9.06536 18.51739,16.30967 40.98329,16.30967 22.76948,0 41.00071,-7.36519 41.00071,-16.30967 V 343.4653 h 56.77022 c 15.34958,0 28.05403,-9.64262 28.05403,-21.55457 -0.46514,0.11912 -0.45304,-242.759793 -0.45304,-244.07011 0,-48.24335 -56.29271,-87.3160093 -125.59844,-87.3160093 z" />
    <g
       id="g746"
       transform="translate(-15.92008,0.66844582)"
       style="fill:#4d4d4d">
      <path
         class="st0"
         d="m 523.2,292.1 v 102.8 c 0,7.5 15.32138,13.5 33.90798,13.5 v 0 c 18.83776,0 33.90797,-6.1 33.90797,-13.5 V 292.1 Z"
         id="path36"
         style="fill:#4d4d4d;stroke-width:1.58483" />
    </g>
    <path
       class="st5"
       d="m 658.67775,83.047862 c 0,-45.42211 -52.99052,-82.20842191 -118.2433,-82.20842191 -65.25278,0 -118.24329,36.78631191 -118.24329,82.20842191 0,1.121539 0,229.802268 0,229.802268 0,11.10318 11.82433,20.29977 26.42226,20.29977 h 184.08 c 14.45195,0 26.42227,-9.08442 26.42227,-20.29977 -0.43794,0.11216 -0.43794,-228.568575 -0.43794,-229.802268 z"
       id="path38"
       style="fill:#f48a92;stroke-width:1.27954;fill-opacity:1" />
    <g
       id="g44"
       transform="matrix(1.4597938,0,0,1.1215337,-243.18284,-10.375897)"
       style="fill:#f4cfef;fill-opacity:1">
		<g
   id="g42"
   style="fill:#f4cfef;fill-opacity:1">
			<path
   class="st1"
   d="m 460.4,207.7 c 2.5,2.9 6.2,4.5 11.1,4.6 5.8,0.1 10.2,-1.7 13.4,-5.6 4.4,-5.3 4.8,-12.8 4.6,-13.7 v -0.1 c 0.1,-13.6 -4.1,-28.1 -7.1,-38.7 -1.8,-6.4 -3.3,-11.6 -3.3,-14.5 0,-12.9 6.3,-19.6 18.8,-19.6 4.4,0 7.8,1.4 10.1,4.1 4.8,5.6 3.5,15.1 3.3,15.4 -0.1,0.5 -10.7,36.1 -6,59.2 5,24.3 11.1,25.3 17.5,26.4 2.5,0.5 9,0.9 14.2,-3.6 5,-4.3 7.5,-11.9 7.4,-22.6 -0.1,-17.7 -3.6,-28.1 -6,-35.7 -1.2,-3.3 -1.3,-5.8 -1.5,-8.3 -0.5,-4.3 1,-10.2 5,-14.7 3.3,-3.8 7.3,-6 10.8,-6 12.3,-0.3 13,11.3 13.7,22.4 0.7,11.3 1.4,22 12.5,22.6 6.2,0.3 10.4,-0.7 12.1,-3.2 2.8,-3.8 0.1,-10.4 -2,-15.8 -0.8,-2.1 -2.1,-6.3 -2.1,-6.3 -1.2,-4.8 -2.5,-10.9 0.5,-14.7 2,-2.4 5.2,-3.6 10.1,-3.5 2.2,0 3.9,0.9 5.3,2.6 7.6,9.3 1.2,41.6 0.9,42.9 0,0.2 -4,15 -2.5,26.4 1.6,11.7 4.6,14 9.8,14.4 5.2,0.3 6.7,-4.1 6.7,-4.1 0,-59.1 0,-133.9 0,-134.6 0,-40.5 -36.3,-73.3 -81,-73.3 -44.7,0 -81,32.8 -81,73.3 0,0.6 0,56.2 0,109.4 -0.1,-0.1 -0.3,9.2 4.7,14.9 z"
   id="path40"
   style="fill:#f4cfef;fill-opacity:1" />

		</g>

	</g>
  </g>
</g>

</g>
  </g>
</svg>
